<?xml version="1.0" encoding="iso-8859-1"?>
<!-- Uploaded to: SVG Repo, www.svgrepo.com, Generator: SVG Repo Mixer Tools -->
<svg fill="#d4b87e" height="800px" width="800px" version="1.1" id="Layer_1" xmlns="http://www.w3.org/2000/svg" xmlns:xlink="http://www.w3.org/1999/xlink" 
	 viewBox="0 0 512 512" xml:space="preserve">
<g>
	<g>
		<path d="M497.314,213.704L298.293,14.682C288.821,5.214,276.231,0,262.845,0H50.136C22.491,0,0,22.491,0,50.136v212.709
			c0,13.387,5.214,25.976,14.685,35.452l199.02,199.017c9.469,9.47,22.059,14.686,35.45,14.686c13.393,0,25.984-5.216,35.452-14.686
			l212.705-212.705c9.471-9.47,14.688-22.06,14.688-35.453C512,235.763,506.784,223.173,497.314,213.704z M473.68,260.974
			L260.972,473.681c-3.156,3.156-7.352,4.806-11.815,4.806s-8.66-1.64-11.816-4.982h-0.001L38.323,274.578
			c-3.159-3.161-4.899-7.271-4.899-11.733V50.136c0-9.215,7.497-16.712,16.712-16.712h212.709c4.461,0,8.659,1.74,11.816,4.896
			L473.68,237.341c3.156,3.156,4.896,7.352,4.896,11.815C478.575,253.619,476.837,257.816,473.68,260.974z"/>
	</g>
</g>
<g>
	<g>
		<path d="M142.923,79.903c-8.418-8.418-19.609-13.055-31.51-13.055c-11.919,0-23.114,4.64-31.497,13.043
			c-8.427,8.408-13.068,19.603-13.068,31.522c0,11.901,4.637,23.091,13.043,31.498c8.409,8.427,19.603,13.068,31.522,13.068
			c11.901,0,23.091-4.637,31.51-13.055c8.418-8.418,13.055-19.609,13.055-31.51C155.978,99.494,151.338,88.299,142.923,79.903z
			 M119.29,119.289c-2.137,2.136-4.86,3.266-7.877,3.266c-3.02,0-5.74-1.125-7.876-3.266c-2.136-2.136-3.266-4.859-3.266-7.876
			c0-3.02,1.125-5.74,3.278-7.888c2.124-2.128,4.843-3.253,7.864-3.253c3.017,0,5.74,1.13,7.888,3.278
			c2.128,2.124,3.253,4.843,3.253,7.864C122.554,114.43,121.426,117.153,119.29,119.289z"/>
	</g>
</g>
<g>
	<g>
		<path d="M196.987,226.383c-19.548-19.547-51.355-19.547-70.902,0c-19.547,19.547-19.547,51.354,0,70.903
			c9.774,9.773,22.612,14.661,35.452,14.661s25.677-4.887,35.45-14.661C216.533,277.739,216.533,245.932,196.987,226.383z
			 M173.353,273.651c-6.517,6.516-17.117,6.515-23.634,0c-6.517-6.517-6.517-17.119,0-23.634c3.259-3.259,7.537-4.887,11.818-4.887
			c4.279,0,8.559,1.629,11.816,4.887C179.868,256.533,179.868,267.136,173.353,273.651z"/>
	</g>
</g>
<g>
	<g>
		<path d="M397.53,226.383c-19.549-19.547-51.355-19.547-70.902,0c-19.547,19.547-19.547,51.354,0,70.903
			c9.774,9.773,22.612,14.661,35.452,14.661s25.677-4.887,35.451-14.661C417.076,277.739,417.076,245.932,397.53,226.383z
			 M373.896,273.651c-6.517,6.516-17.117,6.515-23.634,0c-6.517-6.517-6.517-17.119,0-23.634c3.259-3.259,7.537-4.887,11.818-4.887
			c4.279,0,8.559,1.629,11.816,4.887C380.411,256.533,380.411,267.136,373.896,273.651z"/>
	</g>
</g>
<g>
	<g>
		<path d="M261.82,144.837c-9.229,0-16.712,7.482-16.712,16.712v200.543c0,9.229,7.482,16.712,16.712,16.712
			c9.229,0,16.712-7.482,16.712-16.712V161.549C278.532,152.319,271.05,144.837,261.82,144.837z"/>
	</g>
</g>
</svg>